<svg xmlns="http://www.w3.org/2000/svg" width="85" height="85"><defs><filter id="a" x="117" y="5228" width="85" height="85" filterUnits="userSpaceOnUse"><feFlood result="flood" flood-color="#a4c58c"/><feComposite result="composite" operator="in" in2="SourceGraphic"/><feBlend result="blend" in2="SourceGraphic"/></filter></defs><path d="M172.644 5228h.946a.951.951 0 00.379.19 5.136 5.136 0 01.662.85 18.9 18.9 0 01-3.785 12.43 8.948 8.948 0 01-1.608 1.89 31.114 31.114 0 01-2.649 1.9 3.612 3.612 0 00-1.23.67 9.27 9.27 0 00-.473 1.13c-.7 1.36-1.275 2.73-1.987 4.18a67.406 67.406 0 00-4.163 9.77h.189a12.3 12.3 0 012.838-2.66c.689-.52 1.29-1.28 1.987-1.8 1.785-1.33 3.577-2.49 5.488-3.7 1.258-.8 2.388-2.06 4.352-2.09.471.58.967.67 1.041 1.71a18 18 0 00-1.135 2.75c-1.228 2.48-2.2 5.26-3.312 7.87h.284c.368-.75 2.035-1.75 2.744-2.27 2.1-1.56 3.957-3.56 6.055-5.12.7-.53 2.751-1.8 3.028-2.57.159-.42-.3-1.8-.095-2.65a13.686 13.686 0 011.514-4.18 10.868 10.868 0 016.15-4.45c3.707-1.14 8.165 1.36 9.556 3.22a13.625 13.625 0 012.082 3.61c2.132 6.25-3.042 11.28-7.38 12.52-1.707.48-3.466-.14-5.015-.19-.66.84-2.407 1.55-2.838 2.46a18.968 18.968 0 014.73.95c3.707 1.02 8.738 1.81 10.5 4.65.57.92.378 2.8.378 4.27 0 4.86.429 6.91-3.028 8.54a26.629 26.629 0 01-2.46 10.9c-3.8 9.01-10.687 17.54-20.72 20.21h-32.356a24.617 24.617 0 01-3.784-1.33c-8.151-4.02-14.19-11.17-17.5-20.01a56.244 56.244 0 01-1.7-6.83l-.19-2.94c-.252-.13-.5-.26-.756-.38a7.292 7.292 0 01-1.893-1.9c-.767-1.25-.378-5.32-.378-7.3v-2.47a5.335 5.335 0 012.649-2.75c3.351-2.12 7.81-2.71 12.3-3.8 1.613-.39 3.254-.29 4.825-.66.6-.14 1.519.08 1.8-.38-.888-.99-1.194-2.64-1.7-3.98-1.135-2.99-1.728-6.32-2.649-9.68l-.189-1.8c-.474-1.97-.89-3.64 1.8-3.61.513.44 1.365.33 2.082.57a35.785 35.785 0 015.109 2.09 21.061 21.061 0 0111.543 15.56h.662c2.58-4.61.408-11.41-1.23-15.18a16.5 16.5 0 01-13.624-7.59c-.854-1.28-2.176-2.91-2.176-4.93a3.639 3.639 0 01.662-.85 4.05 4.05 0 012.271-.29 20.485 20.485 0 014.92.76c4.631 1.31 8.144 3.1 9.745 7.4a22.068 22.068 0 01.568 2.65v1.05c.509 1.28 1.378 2.68 1.892 4.08.241.65.51 3.04.946 3.32a3.961 3.961 0 01.568-1.24c.4-.8.535-1.58.946-2.37.511-.98 1.3-2.12 1.7-3.13v-2.18c.452-1.98.482-3.96 1.136-5.69a16.123 16.123 0 015.582-7.49 12.421 12.421 0 011.987-1.14 5.225 5.225 0 001.407-.57zm-1.419 3.98c-.545.81-1.679 1.2-2.271 1.99a13.5 13.5 0 00-3.217 8.16h.189c.6-.78 1.674-1.2 2.271-1.99a13.815 13.815 0 003.217-8.16h-.189zm-17.977 11.1c-.149-4.74-6.224-6.88-10.881-7.4v.1h-.095v.19a3.827 3.827 0 01.568.94c.456.65 1.028 1.26 1.514 1.9 1.411 1.88 5.715 4.12 8.894 4.27zm35.764 2.18a7.45 7.45 0 001.325 2.56 16.111 16.111 0 005.015 5.41c.477.32 2.4 1.72 2.838 1.33.884-1.09.779-3.85.284-5.22-.943-2.61-2.184-3.72-5.015-4.46a6.006 6.006 0 00-2.46-.19c-.644.16-1.326.46-1.987.57zm-51.849 1.52a26.475 26.475 0 001.325 6.16c1.55 5.05 2.9 9.8 6.434 12.81a14.359 14.359 0 001.8 1.71c.414.23.9.16 1.325.38a8.316 8.316 0 001.514.95v-.19a20.673 20.673 0 01-1.419-2.94 59.757 59.757 0 00-3.974-6.26c-.844-1.18-2.836-2.75-2.839-4.56.588-.63.683-1.06 1.987-1.04a49.4 49.4 0 016.529 8.72c.42.68 1.6 3.53 2.081 3.8v-2.85a6.6 6.6 0 01-.189-1.61 23.454 23.454 0 00-1.325-4.55 19.261 19.261 0 00-8.988-8.82c-1.179-.62-2.671-1.62-4.261-1.71zm58.756 10.24a6.673 6.673 0 01-2.46-1.42 19.658 19.658 0 01-4.825-4.65c-.45-.63-1.664-3.35-2.271-3.51-.28 1-.851 1.89-1.135 3.13a5.663 5.663 0 00.189 2.37c.751 2.82 1.833 4.1 4.447 5.03a5.99 5.99 0 003.122.38c1.108-.26 2-.77 2.933-1.04v-.29zm-26.4-.85a25.942 25.942 0 01-3.406 2.37 33.118 33.118 0 00-7.38 7.49 9.947 9.947 0 00-2.271 5.89h.094v.09c7.385-1.41 8.5-4.7 11.07-10.81a40.947 40.947 0 002.082-5.03h-.189zm-11.543 20.39a27.339 27.339 0 005.3-.09c.663-.14 1.562.19 2.082-.1a9.22 9.22 0 00.757-.75c1.146-.86 2.188-1.83 3.311-2.66 3.3-2.45 6.35-5.14 9.651-7.59a11.3 11.3 0 001.7-1.42 2.526 2.526 0 01.568-.86c.332-.2.734-.16 1.04-.37.842-.59 1.543-1.48 2.366-2.09a4.12 4.12 0 001.514-1.33c-.954-.33-2.31-2.12-2.744-3.04-1.445.85-2.558 2.25-3.879 3.23-3.981 2.96-7.576 6.33-11.544 9.3-1.611 1.2-2.921 2.9-4.636 3.98-1.735 1.09-3.587 1.39-5.677 2.18a4.713 4.713 0 01.194 1.61zm-18.64-11.19a6.673 6.673 0 01-1.7.19c-1.3.31-2.764.23-4.163.57-3.238.79-6.617 1.22-9.461 2.28-1.144.42-3.412.82-3.785 1.89-.394.73 2.725 2.4 3.879 2.09 2.281-.62 4.973-.93 7.475-1.52h.946c1.684-.39 3.8-.36 5.488-.76h1.04c1.122-.25 2.6-.31 3.69-.57.652-.15 1.154.12 1.514-.28a13.614 13.614 0 01-3.69-3.89h-1.23zm43.713.66a15.5 15.5 0 01-1.893 1.43c-.591.44-1.112 1.08-1.7 1.52a3.014 3.014 0 00-1.135.94h1.041c.8.49 3.665.29 4.825.57 2.134.52 4.476.53 6.623 1.14 1.152.33 2.56.79 3.69 1.04 1.054.24 4.258-1.47 4.352-2.37-.22-.25-.441-.5-.662-.76-1.393-.85-3-.95-4.731-1.51a59.229 59.229 0 00-10.407-2zm-8.137 6.55a19.469 19.469 0 01-1.8 1.33c-.429.32-.8.82-1.23 1.14a4.038 4.038 0 00-1.419 1.13h1.987c.789-.47 3.839-.11 5.014-.37 1.131-.26 2.449-.1 3.69-.38 2.162-.5 4.569-.61 6.718-1.05v-.09c-.095-.03-.189-.07-.284-.1-.752-.45-2.215-.23-3.217-.47-2.162-.52-4.83-.45-7.1-.95-.834-.19-1.666.05-2.356-.19zm-36.616.57a6.179 6.179 0 01-1.7.19 32.31 32.31 0 01-6.15.76v.19q3.168.465 6.339.95c.528-.79 1.916-1.36 2.27-2.09h-.755zm8.42.57a4.333 4.333 0 01-1.135.19 21.784 21.784 0 00-3.217.95 9.294 9.294 0 00-5.015 4.83 12.053 12.053 0 00-.378 2.09 8.821 8.821 0 00-.189 3.32c.189.8.351 1.93.567 2.66a37.823 37.823 0 001.136 3.79 1.937 1.937 0 00.567 1.23c.445-1.41 1.668-2.65 2.461-3.79 2.322-3.34 4.664-6.65 7.947-9.01a13.247 13.247 0 012.839-1.52 7.8 7.8 0 001.8-.66l.852-1.05c.053-1.1-.265-2.69-1.23-2.75-.793.63-2.705 1.1-3.69 1.62a17.487 17.487 0 00-6.055 4.93c-.971 1.37-.816 3.58-3.123 3.6-.581-.66-1.059-.63-1.041-1.99a14.21 14.21 0 00.947-2.09c.474-.78 1.059-1.54 1.608-2.27a18.577 18.577 0 012.933-2.75c.562-.41 1.58-.7 1.892-1.33h-.473zm-26.587.57a23.836 23.836 0 00.095 4.17 38.761 38.761 0 006.434 2.66c1.149.4 2.416.44 3.5.76.441.12 3.481.49 3.5.47.344-.41.112-.97.284-1.61.237-.89.642-1.79.852-2.66h-.094v-.09a17.593 17.593 0 01-3.974-.67c-.536-.06-1.072-.12-1.608-.19-1.971-.53-4.09-.82-5.961-1.51a21.665 21.665 0 00-3.025-1.33zm78.531 0a4.6 4.6 0 01-1.23.57 42.11 42.11 0 01-6.623 2.08c-.577.17-.915.03-1.514.19-1.929.51-4.32.65-6.339 1.14-.914.06-1.829.13-2.744.19-1.405.33-3.3.24-4.731.57h-1.8c-.83.18-2.069.09-2.933.28h-1.8c-.769.18-1.953-.1-2.838.1-2.559.57-6.806.19-9.746.19-.871 1.09-2.162 1.23-3.5 1.9a14.9 14.9 0 00-1.987 1.32 3.2 3.2 0 00-1.324 1.14h2.649c.634.4 2.012-.08 2.839.1a17.634 17.634 0 003.122.09h5.582a16.725 16.725 0 002.933-.19c1.534-.34 3.273.11 4.636-.19.966-.21 2.039-.01 2.839-.19h1.608c1.423-.32 3.25-.24 4.636-.57 1.363-.31 2.645-.05 3.974-.38 2.417-.58 5.135-.83 7.38-1.51.481-.15.751-.05 1.23-.19a28.992 28.992 0 004.353-1.71c.57-.29 1.193-.33 1.419-.95.3-.48.1-3.18.094-3.98h-.189zm-75.314 8.91c-.334 1.05.288 3.06.568 3.99.4 1.33.479 2.47.946 3.7a42.121 42.121 0 002.649 5.31c3.482 6.28 8.718 11.49 16.18 13.75h31.6c8.225-2.51 13.622-8.47 17.22-15.65a28.6 28.6 0 003.217-11h-.094v-.1c-2.579 1.09-5.786 1.37-8.7 2.09-1.163.29-2.131.1-3.312.38-2.414.57-5.341.38-7.853.95h-1.514a41.13 41.13 0 01-4.636.38h-2.46a34.5 34.5 0 01-6.244.19c-3-.03-5.993-.07-8.989-.1-.738-.16-1.888.1-2.744-.09a11.868 11.868 0 00-2.46-.19c-.533.93-1.378 1.69-1.987 2.56-.912 1.3-1.613 2.62-2.46 3.98-.32.52-.839 1.08-1.135 1.62-.7 1.26-.836 2.86-2.838 2.84-1.887-1.91-2.857-5.56-3.785-8.44-.274-.85-.283-3.21-.662-3.79v-.1a25.551 25.551 0 01-6.15-1.14 29.318 29.318 0 01-4.354-1.14zm61.406 5.51h.948a.824.824 0 00.378.18 5.682 5.682 0 01.663.86 14.465 14.465 0 01-1.514 5.41c-1.99 4.73-3.984 8.35-8.421 10.62-1.178.6-3.836 1.62-5.961 1.14a24.707 24.707 0 01-5.677-1.71 16.7 16.7 0 00-1.8-1.14h-2.078c-2.7-.6-7.892-.57-7.853-3.7.588-.63.682-1.06 1.987-1.04.95 1.11 5.805 2.03 8.042 1.61.519-1.39 2.877-2.84 4.069-3.7a73.4 73.4 0 0112.3-6.64c1.288-.59 2.645-.98 3.879-1.52a3.2 3.2 0 001.041-.37zm-1.987 3.98c-.82.7-2.221.83-3.217 1.33-2.733 1.37-5.555 2.62-8.042 4.17-1 .63-2.464 1.14-3.123 2.09h.473a4.712 4.712 0 011.514-.38 8.9 8.9 0 013.5-.76 8.677 8.677 0 00.757.85 4.1 4.1 0 01-.189 1.52 19.352 19.352 0 01-5.393 1.8v.19a9.4 9.4 0 011.987.38 6.76 6.76 0 003.5-.38c3.45-1.2 5.064-3.29 6.623-6.35.491-.97.976-2.1 1.42-3.13a3.176 3.176 0 00.283-1.24v-.09h-.094z" transform="translate(-117 -5228)" fill="#737373" fill-rule="evenodd" filter="url(#a)"/></svg>