<svg xmlns="http://www.w3.org/2000/svg" width="14.875" height="14.875"><defs><filter id="a" x="547.344" y="36.219" width="14.875" height="14.875" filterUnits="userSpaceOnUse"><feFlood result="flood" flood-color="#7eb252"/><feComposite result="composite" operator="in" in2="SourceGraphic"/><feBlend result="blend" in2="SourceGraphic"/></filter></defs><path d="M549.826 36.22a2.233 2.233 0 011.862 1.022l1.588 1.588a1.724 1.724 0 01.6.913 1.123 1.123 0 01.037.475 2.087 2.087 0 01-.712 1.04l-.529.548a2.084 2.084 0 00-.512.548 2.112 2.112 0 01.183.311c.133.2.293.389.438.584.159.215.388.391.548.6a8.2 8.2 0 001.533 1.5c.078.059.14.16.219.219.219.164.426.32.657.474a.9.9 0 00.4.219 4.629 4.629 0 01.638-.638 3.163 3.163 0 011.442-1.114 1.126 1.126 0 01.694.109 5.746 5.746 0 011.46 1.3l1.15 1.151a2.157 2.157 0 01.53.584 3.281 3.281 0 01.146.493 1.526 1.526 0 01-.037.657 3.723 3.723 0 01-1 1.15 3.436 3.436 0 01-.876.767 5.122 5.122 0 01-.986.292 4.4 4.4 0 01-1.825-.037l-.31-.037a8.271 8.271 0 01-1-.292 15.926 15.926 0 01-1.387-.657c-.25-.138-.5-.335-.749-.474a14.158 14.158 0 01-5.257-5.348c-.128-.23-.3-.466-.438-.693a7.213 7.213 0 01-.438-.968 5.708 5.708 0 01-.146-4.454 3.5 3.5 0 01.712-.766l.785-.8a1.8 1.8 0 01.31-.182 1.17 1.17 0 00.27-.084zm.11.8c-.064.049-.156.063-.22.11l-.839.858a1.862 1.862 0 00-.438.474c-.71 1.6.017 3.675.694 4.782.52.853 1.058 1.667 1.642 2.446.093.123.236.224.329.346a3.049 3.049 0 00.566.6c.067.051.1.15.164.2.269.215.494.489.767.694.319.241.624.5.949.73a19.571 19.571 0 001.953 1.169 5.447 5.447 0 003.778.73 3.682 3.682 0 00.584-.146 2.012 2.012 0 00.584-.493l.877-.858a.981.981 0 01.073-.128 1.26 1.26 0 00-.658-1.114c-.115-.115-.213-.249-.328-.364-.359-.359-.736-.7-1.1-1.059a2.273 2.273 0 00-.785-.694.781.781 0 00-.676.366l-1.1 1.076a1.536 1.536 0 01-.456.42 2.348 2.348 0 00-.4-.109 4.337 4.337 0 01-.693-.4 13.388 13.388 0 01-2.9-2.774 3.9 3.9 0 01-1.058-1.807 5.3 5.3 0 00.675-.675c.351-.351.714-.684 1.041-1.059H553a.712.712 0 00.11-.512.742.742 0 01-.11-.159 5.471 5.471 0 00-.493-.493l-1.46-1.424a1.492 1.492 0 00-1.111-.729z" transform="translate(-547.344 -36.219)" fill="#737373" fill-rule="evenodd" filter="url(#a)"/></svg>