<svg xmlns="http://www.w3.org/2000/svg" width="97" height="70"><defs><filter id="a" x="110" y="5450" width="97" height="70" filterUnits="userSpaceOnUse"><feFlood result="flood" flood-color="#a4c58c"/><feComposite result="composite" operator="in" in2="SourceGraphic"/><feBlend result="blend" in2="SourceGraphic"/></filter></defs><path d="M133.7 5450.03c4.849-.08 9.883.05 13.858 1.04 1.975.5 3.711.52 5.5 1.14a24.76 24.76 0 013.892 1.7 6.623 6.623 0 001.708 1.13 4.194 4.194 0 011.329-.94 23.766 23.766 0 016.074-2.46c.833-.25 1.5-.16 2.373-.38 1.75-.45 4-.51 5.884-.95h1.519c1.191-.25 2.8.11 4.176-.18a10.053 10.053 0 013.417 0c1.374.3 2.987-.08 4.176.18h1.519c.977.23 2.143.13 3.227.38a65.668 65.668 0 017.308 1.71c2.6.96 5.228 1.95 6.643 4.06.827 1.24.665 3.42.665 5.49v40.1c0 5.52.133 11.29-.1 16.65a4.057 4.057 0 01-1.614 1.23 3.393 3.393 0 01-1.708-.38c-1.138-.32-2.408-.31-3.512-.56-1.232-.28-2.559-.13-3.7-.38h-1.424c-.828-.18-1.943.02-2.942-.19a33.732 33.732 0 00-6.264-.29c-2.127 0-4.675-.42-6.644 0-.83.18-1.946-.05-2.658.1h-2.467c-1.1.23-2.643.15-3.7.38-1.107.06-2.214.12-3.322.19-1.929.43-4.066.3-6.074.75a6.789 6.789 0 01-2.847.38c-2.433-.58-5.375-.57-7.878-1.13-1.343-.31-2.827-.11-4.081-.38-1.36-.07-2.721-.13-4.081-.19h-1.512a17 17 0 00-4.935-.1c-.682.12-1.852-.15-2.563 0q-3.275.06-6.549.1c-.968.21-2.2-.05-3.322.19-2.567.55-5.561.36-7.972.94-1.715.42-3.831.99-4.746-.37-.6-.9-.284-3.26-.284-4.64v-56.47a5.043 5.043 0 00.569-1.23 6.925 6.925 0 011.424-1.61c2.8-2.09 6.267-2.96 10.25-3.97 2.606-.66 5.532-.36 8.257-.94.9-.2 2.437.34 3.131-.1zm-1.613 4.07a7.4 7.4 0 01-1.613.09c-1.151.26-2.383.01-3.607.29-4.691 1.08-9.8 1.18-12.718 3.97v52.68a32.323 32.323 0 000 4.17.516.516 0 00.284.09c.685-.45 1.836-.17 2.753-.38 1.5-.33 3.4-.23 4.935-.56h1.8c1.06-.23 2.463.07 3.7-.19a35.311 35.311 0 016.644-.19 175.4 175.4 0 0122.114 1.51c.405-1.23.095-3.9.095-5.39v-51.55a.642.642 0 01-.095-.38c-5.874-3.74-14.637-4.09-24.291-4.16zm28.473 61.48a37.118 37.118 0 005.5-.76c1.313-.29 2.769-.11 3.986-.37h1.614c1.429-.31 3.362-.06 4.84-.38h7.5a152.022 152.022 0 0118.888 1.32v-57.04c-.353-.22-.589-.65-.949-.85a21.276 21.276 0 00-3.132-1.13c-4.543-1.68-10.373-2.27-16.515-2.27-4.32 0-8.624.03-12.149.94-.646.17-1.066.01-1.708.19-2.895.81-5.987 1.41-7.878 3.22v57.13zm-36.825-44.46h16.7c3.109 0 5.9-.73 5.885 2.56-.464.51-.592 1.17-1.329 1.42-1.177.4-3.787.09-5.22.09H128.2c-3.187 0-6.008.74-5.98-2.65a6.3 6.3 0 01.854-1.13 5.055 5.055 0 00.662-.29zm48.594 0h16.7c1.879 0 5-.45 5.5.95 1.1 1.11-.158 3.03-1.519 3.03-.583.36-3.965.09-4.935.09h-12.708c-1.961 0-4.175.25-4.365-1.51-.902-1.13.839-2.13 1.328-2.56zm-48.594 12.11h16.7c3.114 0 5.9-.74 5.885 2.56-.467.51-.592 1.15-1.329 1.41-1.147.41-3.809.1-5.22.1H128.2c-3.183 0-6.008.73-5.98-2.65a6.87 6.87 0 01.759-1.04 7.692 7.692 0 00.757-.38zm48.689 0h16.7c2.889 0 5.773-.58 5.789 2.37-.466.61-.56 1.3-1.329 1.6-1 .4-3.659.1-4.935.1h-11.573c-2.279 0-5.851.56-6.074-1.51a1.7 1.7 0 010-1.42c.223-.18.268-.49.474-.67.265-.22.677-.25.949-.47zm-48.689 12.11h21.07a3.632 3.632 0 011.519 1.42c.012 1.38-.352 2.21-1.329 2.55-1.206.42-4.025.1-5.5.1h-11.01c-1.354 0-3.829.28-4.935-.1a3.626 3.626 0 01-1.329-1.32c-.045-2.05.513-1.77 1.515-2.65zm48.689 0h16.7c2.894 0 5.772-.58 5.789 2.36-.458.6-.551 1.34-1.329 1.61-1.122.4-3.74.1-5.125.1h-11.383c-2.279 0-5.851.56-6.074-1.52a1.7 1.7 0 010-1.42 4.878 4.878 0 00.379-.56 11.73 11.73 0 011.044-.57z" transform="translate(-110 -5450)" fill="#737373" fill-rule="evenodd" filter="url(#a)"/></svg>