<svg xmlns="http://www.w3.org/2000/svg" width="82" height="70"><defs><filter id="a" x="118" y="5654" width="82" height="70" filterUnits="userSpaceOnUse"><feFlood result="flood" flood-color="#a4c58c"/><feComposite result="composite" operator="in" in2="SourceGraphic"/><feBlend result="blend" in2="SourceGraphic"/></filter></defs><path d="M158.575 5654a5.053 5.053 0 012.843 1.04c1.459.76 2.938 1.44 4.358 2.18 3.9 2.04 7.85 3.77 11.749 5.8 1.484.77 3.024 1.48 4.548 2.28a11.938 11.938 0 001.516.85h15.35a7.555 7.555 0 01.758.67c.476.6.284 2.18.284 3.23v50.05c0 1.44.2 2.93-.663 3.51-.786.62-3.252.29-4.548.29h-71.821c-1.564 0-4.049.33-4.643-.67-.515-.87-.19-3.13-.189-4.37v-51.66c.351-.37.681-.7 1.042-1.05h15.349a9.239 9.239 0 001.137-.66c1.085-.57 2.177-1.07 3.222-1.62 3.214-1.67 6.49-3.18 9.664-4.84 2.337-1.22 4.715-2.32 7.012-3.51.944-.5 2.29-.81 3.032-1.52zm.284 3.22c-.689.81-2.852 1.46-3.885 2-3.054 1.59-6.232 3.15-9.285 4.75-.723.38-4 1.71-4.264 2.18h35.247v-.19c-1.152-.15-3.406-1.63-4.453-2.18-3.145-1.65-6.328-3.02-9.475-4.66-1.021-.53-2.698-1.74-3.885-1.9zm-37.71 11.97v51.67h75.8v-51.67h-75.8zm54.955 9.12c5.855-.07 8.748 2.35 10.707 6.17a10.332 10.332 0 01.852 6.75 13.068 13.068 0 01-1.516 3.6 14.867 14.867 0 00-1.326 1.52v17.38c-.351.37-.681.7-1.042 1.05a2.7 2.7 0 01-1.327-.19l-.947-1.05c-.948-.91-1.895-1.83-2.843-2.75-.458-.46-.82-1.23-1.611-1.33l-5.021 5.13a2.7 2.7 0 01-1.327.19.951.951 0 00-.379-.19 5.224 5.224 0 01-.663-.86v-17.38c-2.082-1.47-3.953-6.78-2.653-10.44a11.694 11.694 0 014.074-5.7 13.032 13.032 0 013.127-1.52 10.608 10.608 0 001.891-.38zm-44.817 3.04h28.235a5.057 5.057 0 01.853.66 1.644 1.644 0 01-.473 2.09c-.785.63-5.154.29-6.633.29h-17.434c-2.623 0-5.6.81-5.59-2a2.936 2.936 0 00.284-.47c.202-.24.557-.33.758-.57zm45.006 0l-2.084.57a8.338 8.338 0 00-4.169 4.46c-1.3 3.44.45 6.36 2.084 8.07.158.23.316.45.474.67.421.25 1.316.53 1.99.85a5.856 5.856 0 003.6.57c2.825-.69 4.677-1.87 5.875-4.17 2.585-4.98-1.137-9.65-4.927-10.83a9.573 9.573 0 00-2.843-.19zm-45.006 6.08h19.139a1.61 1.61 0 01.38 2.75c-.689.55-3.755.29-5.022.29H134.6c-2.347 0-4.371.46-4.358-2 .358-.36.684-.69 1.045-1.04zm0 6.07h19.139a.749.749 0 00.38.19 5.682 5.682 0 01.663.86 1.7 1.7 0 01-.663 1.71c-.689.55-3.755.28-5.022.28H134.6c-2.347 0-4.371.47-4.358-1.99a5.682 5.682 0 01.663-.86.749.749 0 00.382-.19zm41.406 5.13v10.83h.189a19.054 19.054 0 012.653-2.66 4.236 4.236 0 011.232-1.14h.948c.9.88 1.861 1.68 2.747 2.57a4.24 4.24 0 001.327 1.23v-10.83c-1.586.25-3.391 1.49-5.685.95-1.068-.25-2.492-.84-3.411-.95zm-37.711 9.5c-.7-.01-1.379-.5-1.705-.38a3.572 3.572 0 01-.664.95c-1.159.66-1.847-.29-2.368-.85a10.391 10.391 0 012.274-6.65c.93-1.27 2.365-.43 2.842.66a2.828 2.828 0 011.8-.09 4.257 4.257 0 01.664.85v4.56h.189v-.19c.492-.68.333-1.53 1.042-1.99a1.6 1.6 0 011.137-.29 3.209 3.209 0 011.137 1.14c.474-.32.948-.63 1.422-.95.446-.19.962-.21 1.421-.38a1.37 1.37 0 011.326-1.14.842.842 0 01.758.1 1.238 1.238 0 01.853 1.23c.472 1.01-1.192 2.84-1.99 3.04-.528.14-.857-.25-1.326 0-.657.35-1.192 1.16-1.9 1.52-.523.27-1.3.16-1.8.47-.838.91-.94 2.02-2.748 2a2.671 2.671 0 00-.474-.29 5.33 5.33 0 01-1.89-3.32z" transform="translate(-118 -5654)" fill="#737373" fill-rule="evenodd" filter="url(#a)"/></svg>