<svg xmlns="http://www.w3.org/2000/svg" xmlns:xlink="http://www.w3.org/1999/xlink"><defs><filter id="a" x="12" y="2419" width="8" height="12.41" filterUnits="userSpaceOnUse"><feFlood result="flood" flood-color="#a4c58c"/><feComposite result="composite" operator="in" in2="SourceGraphic"/><feBlend result="blend" in2="SourceGraphic"/></filter><filter id="a" x="110" y="5450" width="97" height="70" filterUnits="userSpaceOnUse"><feFlood result="flood" flood-color="#a4c58c"/><feComposite result="composite" operator="in" in2="SourceGraphic"/><feBlend result="blend" in2="SourceGraphic"/></filter><filter id="a" x="118" y="5654" width="82" height="70" filterUnits="userSpaceOnUse"><feFlood result="flood" flood-color="#a4c58c"/><feComposite result="composite" operator="in" in2="SourceGraphic"/><feBlend result="blend" in2="SourceGraphic"/></filter><filter id="a" x="117" y="5228" width="85" height="85" filterUnits="userSpaceOnUse"><feFlood result="flood" flood-color="#a4c58c"/><feComposite result="composite" operator="in" in2="SourceGraphic"/><feBlend result="blend" in2="SourceGraphic"/></filter><filter id="a" x="547.344" y="36.219" width="14.875" height="14.875" filterUnits="userSpaceOnUse"><feFlood result="flood" flood-color="#7eb252"/><feComposite result="composite" operator="in" in2="SourceGraphic"/><feBlend result="blend" in2="SourceGraphic"/></filter></defs><symbol id="icon-arrow-active" viewBox="0 0 12 20">
<path d="M11 1L2 10L11 19" stroke="#000000" stroke-width="2"/>
</symbol><symbol id="icon-arrow-right"><path d="M13.091 2431.41a1.129 1.129 0 00.79-.31l6.119-5.91-6.121-5.9a1.14 1.14 0 00-1.574 0 1.026 1.026 0 00-.005 1.5l4.563 4.4-4.563 4.41a1.026 1.026 0 00.005 1.5 1.12 1.12 0 00.786.31z" transform="translate(-12 -2419)" fill="#fff" fill-rule="evenodd" filter="url(#a)"/></symbol><symbol id="icon-arrow" viewBox="0 0 12 20">
<path d="M11 1L2 10L11 19" stroke="#B4BEF0" stroke-width="2"/>
</symbol><symbol id="icon-book"><path d="M133.7 5450.03c4.849-.08 9.883.05 13.858 1.04 1.975.5 3.711.52 5.5 1.14a24.76 24.76 0 013.892 1.7 6.623 6.623 0 001.708 1.13 4.194 4.194 0 011.329-.94 23.766 23.766 0 016.074-2.46c.833-.25 1.5-.16 2.373-.38 1.75-.45 4-.51 5.884-.95h1.519c1.191-.25 2.8.11 4.176-.18a10.053 10.053 0 013.417 0c1.374.3 2.987-.08 4.176.18h1.519c.977.23 2.143.13 3.227.38a65.668 65.668 0 017.308 1.71c2.6.96 5.228 1.95 6.643 4.06.827 1.24.665 3.42.665 5.49v40.1c0 5.52.133 11.29-.1 16.65a4.057 4.057 0 01-1.614 1.23 3.393 3.393 0 01-1.708-.38c-1.138-.32-2.408-.31-3.512-.56-1.232-.28-2.559-.13-3.7-.38h-1.424c-.828-.18-1.943.02-2.942-.19a33.732 33.732 0 00-6.264-.29c-2.127 0-4.675-.42-6.644 0-.83.18-1.946-.05-2.658.1h-2.467c-1.1.23-2.643.15-3.7.38-1.107.06-2.214.12-3.322.19-1.929.43-4.066.3-6.074.75a6.789 6.789 0 01-2.847.38c-2.433-.58-5.375-.57-7.878-1.13-1.343-.31-2.827-.11-4.081-.38-1.36-.07-2.721-.13-4.081-.19h-1.512a17 17 0 00-4.935-.1c-.682.12-1.852-.15-2.563 0q-3.275.06-6.549.1c-.968.21-2.2-.05-3.322.19-2.567.55-5.561.36-7.972.94-1.715.42-3.831.99-4.746-.37-.6-.9-.284-3.26-.284-4.64v-56.47a5.043 5.043 0 00.569-1.23 6.925 6.925 0 011.424-1.61c2.8-2.09 6.267-2.96 10.25-3.97 2.606-.66 5.532-.36 8.257-.94.9-.2 2.437.34 3.131-.1zm-1.613 4.07a7.4 7.4 0 01-1.613.09c-1.151.26-2.383.01-3.607.29-4.691 1.08-9.8 1.18-12.718 3.97v52.68a32.323 32.323 0 000 4.17.516.516 0 00.284.09c.685-.45 1.836-.17 2.753-.38 1.5-.33 3.4-.23 4.935-.56h1.8c1.06-.23 2.463.07 3.7-.19a35.311 35.311 0 016.644-.19 175.4 175.4 0 0122.114 1.51c.405-1.23.095-3.9.095-5.39v-51.55a.642.642 0 01-.095-.38c-5.874-3.74-14.637-4.09-24.291-4.16zm28.473 61.48a37.118 37.118 0 005.5-.76c1.313-.29 2.769-.11 3.986-.37h1.614c1.429-.31 3.362-.06 4.84-.38h7.5a152.022 152.022 0 0118.888 1.32v-57.04c-.353-.22-.589-.65-.949-.85a21.276 21.276 0 00-3.132-1.13c-4.543-1.68-10.373-2.27-16.515-2.27-4.32 0-8.624.03-12.149.94-.646.17-1.066.01-1.708.19-2.895.81-5.987 1.41-7.878 3.22v57.13zm-36.825-44.46h16.7c3.109 0 5.9-.73 5.885 2.56-.464.51-.592 1.17-1.329 1.42-1.177.4-3.787.09-5.22.09H128.2c-3.187 0-6.008.74-5.98-2.65a6.3 6.3 0 01.854-1.13 5.055 5.055 0 00.662-.29zm48.594 0h16.7c1.879 0 5-.45 5.5.95 1.1 1.11-.158 3.03-1.519 3.03-.583.36-3.965.09-4.935.09h-12.708c-1.961 0-4.175.25-4.365-1.51-.902-1.13.839-2.13 1.328-2.56zm-48.594 12.11h16.7c3.114 0 5.9-.74 5.885 2.56-.467.51-.592 1.15-1.329 1.41-1.147.41-3.809.1-5.22.1H128.2c-3.183 0-6.008.73-5.98-2.65a6.87 6.87 0 01.759-1.04 7.692 7.692 0 00.757-.38zm48.689 0h16.7c2.889 0 5.773-.58 5.789 2.37-.466.61-.56 1.3-1.329 1.6-1 .4-3.659.1-4.935.1h-11.573c-2.279 0-5.851.56-6.074-1.51a1.7 1.7 0 010-1.42c.223-.18.268-.49.474-.67.265-.22.677-.25.949-.47zm-48.689 12.11h21.07a3.632 3.632 0 011.519 1.42c.012 1.38-.352 2.21-1.329 2.55-1.206.42-4.025.1-5.5.1h-11.01c-1.354 0-3.829.28-4.935-.1a3.626 3.626 0 01-1.329-1.32c-.045-2.05.513-1.77 1.515-2.65zm48.689 0h16.7c2.894 0 5.772-.58 5.789 2.36-.458.6-.551 1.34-1.329 1.61-1.122.4-3.74.1-5.125.1h-11.383c-2.279 0-5.851.56-6.074-1.52a1.7 1.7 0 010-1.42 4.878 4.878 0 00.379-.56 11.73 11.73 0 011.044-.57z" transform="translate(-110 -5450)" fill="#737373" fill-rule="evenodd" filter="url(#a)"/></symbol><symbol id="icon-certificate"><path d="M158.575 5654a5.053 5.053 0 012.843 1.04c1.459.76 2.938 1.44 4.358 2.18 3.9 2.04 7.85 3.77 11.749 5.8 1.484.77 3.024 1.48 4.548 2.28a11.938 11.938 0 001.516.85h15.35a7.555 7.555 0 01.758.67c.476.6.284 2.18.284 3.23v50.05c0 1.44.2 2.93-.663 3.51-.786.62-3.252.29-4.548.29h-71.821c-1.564 0-4.049.33-4.643-.67-.515-.87-.19-3.13-.189-4.37v-51.66c.351-.37.681-.7 1.042-1.05h15.349a9.239 9.239 0 001.137-.66c1.085-.57 2.177-1.07 3.222-1.62 3.214-1.67 6.49-3.18 9.664-4.84 2.337-1.22 4.715-2.32 7.012-3.51.944-.5 2.29-.81 3.032-1.52zm.284 3.22c-.689.81-2.852 1.46-3.885 2-3.054 1.59-6.232 3.15-9.285 4.75-.723.38-4 1.71-4.264 2.18h35.247v-.19c-1.152-.15-3.406-1.63-4.453-2.18-3.145-1.65-6.328-3.02-9.475-4.66-1.021-.53-2.698-1.74-3.885-1.9zm-37.71 11.97v51.67h75.8v-51.67h-75.8zm54.955 9.12c5.855-.07 8.748 2.35 10.707 6.17a10.332 10.332 0 01.852 6.75 13.068 13.068 0 01-1.516 3.6 14.867 14.867 0 00-1.326 1.52v17.38c-.351.37-.681.7-1.042 1.05a2.7 2.7 0 01-1.327-.19l-.947-1.05c-.948-.91-1.895-1.83-2.843-2.75-.458-.46-.82-1.23-1.611-1.33l-5.021 5.13a2.7 2.7 0 01-1.327.19.951.951 0 00-.379-.19 5.224 5.224 0 01-.663-.86v-17.38c-2.082-1.47-3.953-6.78-2.653-10.44a11.694 11.694 0 014.074-5.7 13.032 13.032 0 013.127-1.52 10.608 10.608 0 001.891-.38zm-44.817 3.04h28.235a5.057 5.057 0 01.853.66 1.644 1.644 0 01-.473 2.09c-.785.63-5.154.29-6.633.29h-17.434c-2.623 0-5.6.81-5.59-2a2.936 2.936 0 00.284-.47c.202-.24.557-.33.758-.57zm45.006 0l-2.084.57a8.338 8.338 0 00-4.169 4.46c-1.3 3.44.45 6.36 2.084 8.07.158.23.316.45.474.67.421.25 1.316.53 1.99.85a5.856 5.856 0 003.6.57c2.825-.69 4.677-1.87 5.875-4.17 2.585-4.98-1.137-9.65-4.927-10.83a9.573 9.573 0 00-2.843-.19zm-45.006 6.08h19.139a1.61 1.61 0 01.38 2.75c-.689.55-3.755.29-5.022.29H134.6c-2.347 0-4.371.46-4.358-2 .358-.36.684-.69 1.045-1.04zm0 6.07h19.139a.749.749 0 00.38.19 5.682 5.682 0 01.663.86 1.7 1.7 0 01-.663 1.71c-.689.55-3.755.28-5.022.28H134.6c-2.347 0-4.371.47-4.358-1.99a5.682 5.682 0 01.663-.86.749.749 0 00.382-.19zm41.406 5.13v10.83h.189a19.054 19.054 0 012.653-2.66 4.236 4.236 0 011.232-1.14h.948c.9.88 1.861 1.68 2.747 2.57a4.24 4.24 0 001.327 1.23v-10.83c-1.586.25-3.391 1.49-5.685.95-1.068-.25-2.492-.84-3.411-.95zm-37.711 9.5c-.7-.01-1.379-.5-1.705-.38a3.572 3.572 0 01-.664.95c-1.159.66-1.847-.29-2.368-.85a10.391 10.391 0 012.274-6.65c.93-1.27 2.365-.43 2.842.66a2.828 2.828 0 011.8-.09 4.257 4.257 0 01.664.85v4.56h.189v-.19c.492-.68.333-1.53 1.042-1.99a1.6 1.6 0 011.137-.29 3.209 3.209 0 011.137 1.14c.474-.32.948-.63 1.422-.95.446-.19.962-.21 1.421-.38a1.37 1.37 0 011.326-1.14.842.842 0 01.758.1 1.238 1.238 0 01.853 1.23c.472 1.01-1.192 2.84-1.99 3.04-.528.14-.857-.25-1.326 0-.657.35-1.192 1.16-1.9 1.52-.523.27-1.3.16-1.8.47-.838.91-.94 2.02-2.748 2a2.671 2.671 0 00-.474-.29 5.33 5.33 0 01-1.89-3.32z" transform="translate(-118 -5654)" fill="#737373" fill-rule="evenodd" filter="url(#a)"/></symbol><symbol id="icon-herb"><path d="M172.644 5228h.946a.951.951 0 00.379.19 5.136 5.136 0 01.662.85 18.9 18.9 0 01-3.785 12.43 8.948 8.948 0 01-1.608 1.89 31.114 31.114 0 01-2.649 1.9 3.612 3.612 0 00-1.23.67 9.27 9.27 0 00-.473 1.13c-.7 1.36-1.275 2.73-1.987 4.18a67.406 67.406 0 00-4.163 9.77h.189a12.3 12.3 0 012.838-2.66c.689-.52 1.29-1.28 1.987-1.8 1.785-1.33 3.577-2.49 5.488-3.7 1.258-.8 2.388-2.06 4.352-2.09.471.58.967.67 1.041 1.71a18 18 0 00-1.135 2.75c-1.228 2.48-2.2 5.26-3.312 7.87h.284c.368-.75 2.035-1.75 2.744-2.27 2.1-1.56 3.957-3.56 6.055-5.12.7-.53 2.751-1.8 3.028-2.57.159-.42-.3-1.8-.095-2.65a13.686 13.686 0 011.514-4.18 10.868 10.868 0 016.15-4.45c3.707-1.14 8.165 1.36 9.556 3.22a13.625 13.625 0 012.082 3.61c2.132 6.25-3.042 11.28-7.38 12.52-1.707.48-3.466-.14-5.015-.19-.66.84-2.407 1.55-2.838 2.46a18.968 18.968 0 014.73.95c3.707 1.02 8.738 1.81 10.5 4.65.57.92.378 2.8.378 4.27 0 4.86.429 6.91-3.028 8.54a26.629 26.629 0 01-2.46 10.9c-3.8 9.01-10.687 17.54-20.72 20.21h-32.356a24.617 24.617 0 01-3.784-1.33c-8.151-4.02-14.19-11.17-17.5-20.01a56.244 56.244 0 01-1.7-6.83l-.19-2.94c-.252-.13-.5-.26-.756-.38a7.292 7.292 0 01-1.893-1.9c-.767-1.25-.378-5.32-.378-7.3v-2.47a5.335 5.335 0 012.649-2.75c3.351-2.12 7.81-2.71 12.3-3.8 1.613-.39 3.254-.29 4.825-.66.6-.14 1.519.08 1.8-.38-.888-.99-1.194-2.64-1.7-3.98-1.135-2.99-1.728-6.32-2.649-9.68l-.189-1.8c-.474-1.97-.89-3.64 1.8-3.61.513.44 1.365.33 2.082.57a35.785 35.785 0 015.109 2.09 21.061 21.061 0 0111.543 15.56h.662c2.58-4.61.408-11.41-1.23-15.18a16.5 16.5 0 01-13.624-7.59c-.854-1.28-2.176-2.91-2.176-4.93a3.639 3.639 0 01.662-.85 4.05 4.05 0 012.271-.29 20.485 20.485 0 014.92.76c4.631 1.31 8.144 3.1 9.745 7.4a22.068 22.068 0 01.568 2.65v1.05c.509 1.28 1.378 2.68 1.892 4.08.241.65.51 3.04.946 3.32a3.961 3.961 0 01.568-1.24c.4-.8.535-1.58.946-2.37.511-.98 1.3-2.12 1.7-3.13v-2.18c.452-1.98.482-3.96 1.136-5.69a16.123 16.123 0 015.582-7.49 12.421 12.421 0 011.987-1.14 5.225 5.225 0 001.407-.57zm-1.419 3.98c-.545.81-1.679 1.2-2.271 1.99a13.5 13.5 0 00-3.217 8.16h.189c.6-.78 1.674-1.2 2.271-1.99a13.815 13.815 0 003.217-8.16h-.189zm-17.977 11.1c-.149-4.74-6.224-6.88-10.881-7.4v.1h-.095v.19a3.827 3.827 0 01.568.94c.456.65 1.028 1.26 1.514 1.9 1.411 1.88 5.715 4.12 8.894 4.27zm35.764 2.18a7.45 7.45 0 001.325 2.56 16.111 16.111 0 005.015 5.41c.477.32 2.4 1.72 2.838 1.33.884-1.09.779-3.85.284-5.22-.943-2.61-2.184-3.72-5.015-4.46a6.006 6.006 0 00-2.46-.19c-.644.16-1.326.46-1.987.57zm-51.849 1.52a26.475 26.475 0 001.325 6.16c1.55 5.05 2.9 9.8 6.434 12.81a14.359 14.359 0 001.8 1.71c.414.23.9.16 1.325.38a8.316 8.316 0 001.514.95v-.19a20.673 20.673 0 01-1.419-2.94 59.757 59.757 0 00-3.974-6.26c-.844-1.18-2.836-2.75-2.839-4.56.588-.63.683-1.06 1.987-1.04a49.4 49.4 0 016.529 8.72c.42.68 1.6 3.53 2.081 3.8v-2.85a6.6 6.6 0 01-.189-1.61 23.454 23.454 0 00-1.325-4.55 19.261 19.261 0 00-8.988-8.82c-1.179-.62-2.671-1.62-4.261-1.71zm58.756 10.24a6.673 6.673 0 01-2.46-1.42 19.658 19.658 0 01-4.825-4.65c-.45-.63-1.664-3.35-2.271-3.51-.28 1-.851 1.89-1.135 3.13a5.663 5.663 0 00.189 2.37c.751 2.82 1.833 4.1 4.447 5.03a5.99 5.99 0 003.122.38c1.108-.26 2-.77 2.933-1.04v-.29zm-26.4-.85a25.942 25.942 0 01-3.406 2.37 33.118 33.118 0 00-7.38 7.49 9.947 9.947 0 00-2.271 5.89h.094v.09c7.385-1.41 8.5-4.7 11.07-10.81a40.947 40.947 0 002.082-5.03h-.189zm-11.543 20.39a27.339 27.339 0 005.3-.09c.663-.14 1.562.19 2.082-.1a9.22 9.22 0 00.757-.75c1.146-.86 2.188-1.83 3.311-2.66 3.3-2.45 6.35-5.14 9.651-7.59a11.3 11.3 0 001.7-1.42 2.526 2.526 0 01.568-.86c.332-.2.734-.16 1.04-.37.842-.59 1.543-1.48 2.366-2.09a4.12 4.12 0 001.514-1.33c-.954-.33-2.31-2.12-2.744-3.04-1.445.85-2.558 2.25-3.879 3.23-3.981 2.96-7.576 6.33-11.544 9.3-1.611 1.2-2.921 2.9-4.636 3.98-1.735 1.09-3.587 1.39-5.677 2.18a4.713 4.713 0 01.194 1.61zm-18.64-11.19a6.673 6.673 0 01-1.7.19c-1.3.31-2.764.23-4.163.57-3.238.79-6.617 1.22-9.461 2.28-1.144.42-3.412.82-3.785 1.89-.394.73 2.725 2.4 3.879 2.09 2.281-.62 4.973-.93 7.475-1.52h.946c1.684-.39 3.8-.36 5.488-.76h1.04c1.122-.25 2.6-.31 3.69-.57.652-.15 1.154.12 1.514-.28a13.614 13.614 0 01-3.69-3.89h-1.23zm43.713.66a15.5 15.5 0 01-1.893 1.43c-.591.44-1.112 1.08-1.7 1.52a3.014 3.014 0 00-1.135.94h1.041c.8.49 3.665.29 4.825.57 2.134.52 4.476.53 6.623 1.14 1.152.33 2.56.79 3.69 1.04 1.054.24 4.258-1.47 4.352-2.37-.22-.25-.441-.5-.662-.76-1.393-.85-3-.95-4.731-1.51a59.229 59.229 0 00-10.407-2zm-8.137 6.55a19.469 19.469 0 01-1.8 1.33c-.429.32-.8.82-1.23 1.14a4.038 4.038 0 00-1.419 1.13h1.987c.789-.47 3.839-.11 5.014-.37 1.131-.26 2.449-.1 3.69-.38 2.162-.5 4.569-.61 6.718-1.05v-.09c-.095-.03-.189-.07-.284-.1-.752-.45-2.215-.23-3.217-.47-2.162-.52-4.83-.45-7.1-.95-.834-.19-1.666.05-2.356-.19zm-36.616.57a6.179 6.179 0 01-1.7.19 32.31 32.31 0 01-6.15.76v.19q3.168.465 6.339.95c.528-.79 1.916-1.36 2.27-2.09h-.755zm8.42.57a4.333 4.333 0 01-1.135.19 21.784 21.784 0 00-3.217.95 9.294 9.294 0 00-5.015 4.83 12.053 12.053 0 00-.378 2.09 8.821 8.821 0 00-.189 3.32c.189.8.351 1.93.567 2.66a37.823 37.823 0 001.136 3.79 1.937 1.937 0 00.567 1.23c.445-1.41 1.668-2.65 2.461-3.79 2.322-3.34 4.664-6.65 7.947-9.01a13.247 13.247 0 012.839-1.52 7.8 7.8 0 001.8-.66l.852-1.05c.053-1.1-.265-2.69-1.23-2.75-.793.63-2.705 1.1-3.69 1.62a17.487 17.487 0 00-6.055 4.93c-.971 1.37-.816 3.58-3.123 3.6-.581-.66-1.059-.63-1.041-1.99a14.21 14.21 0 00.947-2.09c.474-.78 1.059-1.54 1.608-2.27a18.577 18.577 0 012.933-2.75c.562-.41 1.58-.7 1.892-1.33h-.473zm-26.587.57a23.836 23.836 0 00.095 4.17 38.761 38.761 0 006.434 2.66c1.149.4 2.416.44 3.5.76.441.12 3.481.49 3.5.47.344-.41.112-.97.284-1.61.237-.89.642-1.79.852-2.66h-.094v-.09a17.593 17.593 0 01-3.974-.67c-.536-.06-1.072-.12-1.608-.19-1.971-.53-4.09-.82-5.961-1.51a21.665 21.665 0 00-3.025-1.33zm78.531 0a4.6 4.6 0 01-1.23.57 42.11 42.11 0 01-6.623 2.08c-.577.17-.915.03-1.514.19-1.929.51-4.32.65-6.339 1.14-.914.06-1.829.13-2.744.19-1.405.33-3.3.24-4.731.57h-1.8c-.83.18-2.069.09-2.933.28h-1.8c-.769.18-1.953-.1-2.838.1-2.559.57-6.806.19-9.746.19-.871 1.09-2.162 1.23-3.5 1.9a14.9 14.9 0 00-1.987 1.32 3.2 3.2 0 00-1.324 1.14h2.649c.634.4 2.012-.08 2.839.1a17.634 17.634 0 003.122.09h5.582a16.725 16.725 0 002.933-.19c1.534-.34 3.273.11 4.636-.19.966-.21 2.039-.01 2.839-.19h1.608c1.423-.32 3.25-.24 4.636-.57 1.363-.31 2.645-.05 3.974-.38 2.417-.58 5.135-.83 7.38-1.51.481-.15.751-.05 1.23-.19a28.992 28.992 0 004.353-1.71c.57-.29 1.193-.33 1.419-.95.3-.48.1-3.18.094-3.98h-.189zm-75.314 8.91c-.334 1.05.288 3.06.568 3.99.4 1.33.479 2.47.946 3.7a42.121 42.121 0 002.649 5.31c3.482 6.28 8.718 11.49 16.18 13.75h31.6c8.225-2.51 13.622-8.47 17.22-15.65a28.6 28.6 0 003.217-11h-.094v-.1c-2.579 1.09-5.786 1.37-8.7 2.09-1.163.29-2.131.1-3.312.38-2.414.57-5.341.38-7.853.95h-1.514a41.13 41.13 0 01-4.636.38h-2.46a34.5 34.5 0 01-6.244.19c-3-.03-5.993-.07-8.989-.1-.738-.16-1.888.1-2.744-.09a11.868 11.868 0 00-2.46-.19c-.533.93-1.378 1.69-1.987 2.56-.912 1.3-1.613 2.62-2.46 3.98-.32.52-.839 1.08-1.135 1.62-.7 1.26-.836 2.86-2.838 2.84-1.887-1.91-2.857-5.56-3.785-8.44-.274-.85-.283-3.21-.662-3.79v-.1a25.551 25.551 0 01-6.15-1.14 29.318 29.318 0 01-4.354-1.14zm61.406 5.51h.948a.824.824 0 00.378.18 5.682 5.682 0 01.663.86 14.465 14.465 0 01-1.514 5.41c-1.99 4.73-3.984 8.35-8.421 10.62-1.178.6-3.836 1.62-5.961 1.14a24.707 24.707 0 01-5.677-1.71 16.7 16.7 0 00-1.8-1.14h-2.078c-2.7-.6-7.892-.57-7.853-3.7.588-.63.682-1.06 1.987-1.04.95 1.11 5.805 2.03 8.042 1.61.519-1.39 2.877-2.84 4.069-3.7a73.4 73.4 0 0112.3-6.64c1.288-.59 2.645-.98 3.879-1.52a3.2 3.2 0 001.041-.37zm-1.987 3.98c-.82.7-2.221.83-3.217 1.33-2.733 1.37-5.555 2.62-8.042 4.17-1 .63-2.464 1.14-3.123 2.09h.473a4.712 4.712 0 011.514-.38 8.9 8.9 0 013.5-.76 8.677 8.677 0 00.757.85 4.1 4.1 0 01-.189 1.52 19.352 19.352 0 01-5.393 1.8v.19a9.4 9.4 0 011.987.38 6.76 6.76 0 003.5-.38c3.45-1.2 5.064-3.29 6.623-6.35.491-.97.976-2.1 1.42-3.13a3.176 3.176 0 00.283-1.24v-.09h-.094z" transform="translate(-117 -5228)" fill="#737373" fill-rule="evenodd" filter="url(#a)"/></symbol><symbol id="icon-phone"><path d="M549.826 36.22a2.233 2.233 0 011.862 1.022l1.588 1.588a1.724 1.724 0 01.6.913 1.123 1.123 0 01.037.475 2.087 2.087 0 01-.712 1.04l-.529.548a2.084 2.084 0 00-.512.548 2.112 2.112 0 01.183.311c.133.2.293.389.438.584.159.215.388.391.548.6a8.2 8.2 0 001.533 1.5c.078.059.14.16.219.219.219.164.426.32.657.474a.9.9 0 00.4.219 4.629 4.629 0 01.638-.638 3.163 3.163 0 011.442-1.114 1.126 1.126 0 01.694.109 5.746 5.746 0 011.46 1.3l1.15 1.151a2.157 2.157 0 01.53.584 3.281 3.281 0 01.146.493 1.526 1.526 0 01-.037.657 3.723 3.723 0 01-1 1.15 3.436 3.436 0 01-.876.767 5.122 5.122 0 01-.986.292 4.4 4.4 0 01-1.825-.037l-.31-.037a8.271 8.271 0 01-1-.292 15.926 15.926 0 01-1.387-.657c-.25-.138-.5-.335-.749-.474a14.158 14.158 0 01-5.257-5.348c-.128-.23-.3-.466-.438-.693a7.213 7.213 0 01-.438-.968 5.708 5.708 0 01-.146-4.454 3.5 3.5 0 01.712-.766l.785-.8a1.8 1.8 0 01.31-.182 1.17 1.17 0 00.27-.084zm.11.8c-.064.049-.156.063-.22.11l-.839.858a1.862 1.862 0 00-.438.474c-.71 1.6.017 3.675.694 4.782.52.853 1.058 1.667 1.642 2.446.093.123.236.224.329.346a3.049 3.049 0 00.566.6c.067.051.1.15.164.2.269.215.494.489.767.694.319.241.624.5.949.73a19.571 19.571 0 001.953 1.169 5.447 5.447 0 003.778.73 3.682 3.682 0 00.584-.146 2.012 2.012 0 00.584-.493l.877-.858a.981.981 0 01.073-.128 1.26 1.26 0 00-.658-1.114c-.115-.115-.213-.249-.328-.364-.359-.359-.736-.7-1.1-1.059a2.273 2.273 0 00-.785-.694.781.781 0 00-.676.366l-1.1 1.076a1.536 1.536 0 01-.456.42 2.348 2.348 0 00-.4-.109 4.337 4.337 0 01-.693-.4 13.388 13.388 0 01-2.9-2.774 3.9 3.9 0 01-1.058-1.807 5.3 5.3 0 00.675-.675c.351-.351.714-.684 1.041-1.059H553a.712.712 0 00.11-.512.742.742 0 01-.11-.159 5.471 5.471 0 00-.493-.493l-1.46-1.424a1.492 1.492 0 00-1.111-.729z" transform="translate(-547.344 -36.219)" fill="#737373" fill-rule="evenodd" filter="url(#a)"/></symbol></svg>